/* XPM */
static char *d46d649a99e644769086ebc234f0d3e9KlAawy6vg9I6iENS[] = {
/* columns rows colors chars-per-pixel */
"35 29 151 2 ",
"   c None",
".  c #462615",
"X  c #4C2C17",
"o  c #4C2C1A",
"O  c #512F1A",
"+  c #55331C",
"@  c #5A351D",
"#  c #5C391E",
"$  c #603A1E",
"%  c #563621",
"&  c #593721",
"*  c #573824",
"=  c #5B3B23",
"-  c #613E23",
";  c #733E20",
":  c #644125",
">  c #694427",
",  c #64442A",
"<  c #6A4629",
"1  c #66482D",
"2  c #6E4B2D",
"3  c #724A27",
"4  c #6D4D35",
"5  c #724D32",
"6  c #6F5138",
"7  c #735033",
"8  c #73553C",
"9  c #75583E",
"0  c #7A5A3F",
"q  c #775941",
"w  c #7B5D43",
"e  c #7E6046",
"r  c #7F6048",
"t  c #874625",
"y  c #8C4D2A",
"u  c #904E2D",
"i  c #8A5A2F",
"p  c #90502D",
"a  c #925E2D",
"s  c #8D5D32",
"d  c #975934",
"f  c #9A5A35",
"g  c #8E6136",
"h  c #906237",
"j  c #9B6A36",
"k  c #916439",
"l  c #966A3E",
"z  c #9C6C39",
"x  c #A06F3C",
"c  c #A2723E",
"v  c #806147",
"b  c #83654B",
"n  c #86694D",
"m  c #886A4F",
"M  c #976B40",
"N  c #9A6E43",
"B  c #9F7345",
"V  c #8B6D52",
"C  c #8E7154",
"Z  c #957759",
"A  c #96795A",
"S  c #987B5C",
"D  c #A17545",
"F  c #A47846",
"G  c #AB7E47",
"H  c #A17749",
"J  c #A37A4A",
"K  c #AA7E4C",
"L  c #AD824C",
"P  c #B2864E",
"I  c #B4874F",
"U  c #B2844D",
"Y  c #AB8452",
"T  c #AF8853",
"R  c #B58A50",
"E  c #B68A51",
"W  c #B48B55",
"Q  c #BA8D55",
"!  c #BA8E55",
"~  c #BA8E56",
"^  c #BB8E56",
"/  c #BB8F56",
"(  c #BA8F56",
")  c #B98D54",
"_  c #B58E59",
"`  c #B88F58",
"'  c #BB9056",
"]  c #B7915A",
"[  c #BC955B",
"{  c #BC955B",
"}  c #BD945C",
"|  c #BD965C",
" . c #BA935C",
".. c #BF985F",
"X. c #BF9A63",
"o. c #C0955B",
"O. c #C0965B",
"+. c #C1965C",
"@. c #C1975C",
"#. c #C1975D",
"$. c #C2975F",
"%. c #C1965C",
"&. c #C2985D",
"*. c #C2995F",
"=. c #C29960",
"-. c #C19A60",
";. c #C29B61",
":. c #C39A61",
">. c #C29B62",
",. c #C49B62",
"<. c #C29C61",
"1. c #C39C63",
"2. c #C39D63",
"3. c #C39E63",
"4. c #C49D62",
"5. c #C49D63",
"6. c #C49F63",
"7. c #C59F64",
"8. c #C29D64",
"9. c #C5A065",
"0. c #C6A065",
"q. c #C5A066",
"w. c #C5A166",
"e. c #C6A167",
"r. c #C7A167",
"t. c #C6A166",
"y. c #C6A267",
"u. c #C4A067",
"i. c #C6A268",
"p. c #C7A469",
"a. c #C5A269",
"s. c #C8A268",
"d. c #C8A368",
"f. c #CBA368",
"g. c #C8A469",
"h. c #CBA568",
"j. c #C8A56A",
"k. c #C9A56A",
"l. c #C8A56B",
"z. c #C9A56B",
"x. c #CCA569",
"c. c #CCA56A",
"v. c #CAA76C",
"b. c #CAA76D",
"n. c #CBA86D",
"m. c #CBAA6F",
"M. c #CDAA6F",
"N. c #CEAC71",
"B. c #CEAD71",
"V. c #CEAD72",
"C. c #D0AE72",
/* pixels */
"                                                                      ",
"                                                                      ",
"  , : : ,             , , , 1 , , , , , , , ,             < < < >     ",
"5 k.| | - # = = = =   : | &.3.y.y.s.s.s.a.a.:   = = = = & : } X.y.2   ",
"7 n.u.y.- e r r v v , v 1 G P I I I W R R - 6 , r r r r w < a.y.k.2   ",
"7 m.u.u.- b b b n n q m m : = = & = - - = 8 n 8 n n b n b > 8.7.n.2   ",
"2 B.p.p.= m V V V V 0 V C V - y y y y # q V V 8 V V n n b > v.v.n.1   ",
"2 B.p.m.= m V V V C 0 V C C > f f d d : 8 C V 8 V V V V V > n.v.n.2   ",
"2 C.C.C.= C Z A A S q S S S > d f f d - q Z Z 9 A A A A Z : B.B.B.2   ",
"- p.' ` % 4 6 8 8 8 = 9 9 9 = # = = - & 6 9 9 - 8 8 8 8 6 % ! ! y.=   ",
"= y.! ! @ 4 6 6 8 8 = 8 8 8 - x.f.f.x.- 4 8 8 - 8 8 6 6 6 + ! ' y.&   ",
"= 3.! ! # * # & @ + + + + - O.&.+.+.%.%.- % + @ + + + * & % ( ' y.&   ",
"* 3.) ' &.;.&.;.3.3.<.<.[ - &.&.O.O.O.O.- j D ,.4.4.4.,.3.;.! ! 3.+   ",
"* | ` ) ! ) ) ) ) W P P L # @.@.# @ o.o.- j x G I E ) Q ! ! ! ! ;.*   ",
"  : : - : : - : - - = = # + P P - - U U - - > - : < < > > - : : :     ",
"& u.8.X.3.u.u.u.3.8.X.X.] O P P 3 3 I G + a z } ;.4.8.7.7.a.p.a.a.=   ",
"* 8.` ` ` ( ( ( I I U G G O c D ,.,.x c O a j G G U U P T W Q Q a.-   ",
"* ,.W _ # # # $ $ - $ $ $ O + j x j j # # & @ # @ @ @ @ @ O W W a.-   ",
"& 1.W T @ 2 4 5 5 5 5 5 5 5 O O + O + O 5 5 5 5 5 5 5 5 4 O W W u.-   ",
"* ` Y Y @ 4 5 w w w v v v v # ; ; ; ; + 5 v v v v w w w q + Y Y  .-   ",
"%  .K Y @ 4 4 q w v w v w v @ u u u u @ 5 v v v e w w w 9 O Y Y  .=   ",
"% _ K Y + = * & * * & & % % & u u u u @ * & * * * * * * * O K Y ] &   ",
"& W J Z O 8 8 b b m n V V V % y u y u @ 5 C V C V V V b v o H H W #   ",
"+ T J J O 6 5 9 q q w q w w O t t t t + 5 w w w w w q w q o J H T *   ",
"% Y J H o 4 4 q q 9 q q w q o X o o o o 7 w w w w w w w 8 X J J Y +   ",
"+ K N M o 4 4 q q q q q w o ] _ ] ] _ ] o w w e w w w 0 8 o N N J +   ",
"o K N N X % % % & + + + + T K K K J J J ] X + # @ @ @ O O X N N D +   ",
"o H N N o D F T T T Y Y + B B H B B B B B o s Y T T Y Y B X B N D +   ",
". N s k o i s k k M M M + k g k k g g k k o s k k k l M l o g k H o   "
};
