/* XPM */
static char *result[] = {
/* columns rows colors chars-per-pixel */
"24 39 255 2 ",
"   c #A9595E",
".  c #9E7355",
"X  c #AB694E",
"o  c #AB6A4E",
"O  c #AB6B4E",
"+  c #AA6A4F",
"@  c #AC694E",
"#  c #AC6A4E",
"$  c #AE6B4F",
"%  c #B36C4F",
"&  c #B26F4E",
"*  c #B46C4F",
"=  c #B56C4F",
"-  c #B56E4F",
";  c #A36E51",
":  c #AF6D53",
">  c #A56C59",
",  c #A86F5A",
"<  c #B46D50",
"1  c #B56E50",
"2  c #B66E50",
"3  c #A87052",
"4  c #AE7356",
"5  c #AF7E58",
"6  c #B67157",
"7  c #BC7651",
"8  c #BD7651",
"9  c #BD7753",
"0  c #BE7753",
"q  c #BD7853",
"w  c #BD7954",
"e  c #BE7954",
"r  c #B8775A",
"t  c #BE7659",
"y  c #BF775A",
"u  c #B77958",
"i  c #B4795B",
"p  c #B5795B",
"a  c #BF7B58",
"s  c #B87C5D",
"d  c #BA7D5C",
"f  c #BC7E5C",
"g  c #BE7F5C",
"h  c #BE7F5E",
"j  c #AA5661",
"k  c #A95662",
"l  c #AA5662",
"z  c #A15E67",
"x  c #B8536E",
"c  c #B8556E",
"v  c #B8546F",
"b  c #B65D69",
"n  c #BA4E74",
"m  c #BB4E75",
"M  c #BC4F75",
"N  c #9A6B61",
"B  c #916D70",
"V  c #857777",
"C  c #877676",
"Z  c #827C70",
"A  c #BB6167",
"S  c #B66068",
"D  c #BC616A",
"F  c #A57366",
"G  c #C7566F",
"H  c #C25F6A",
"J  c #C7596F",
"K  c #CA5F6C",
"L  c #C14E74",
"P  c #C14F75",
"I  c #C24E75",
"U  c #C75373",
"Y  c #C75671",
"T  c #C75176",
"R  c #C95370",
"E  c #C95371",
"W  c #C85570",
"Q  c #C85473",
"!  c #CE5771",
"~  c #C95277",
"^  c #CF5177",
"/  c #C95178",
"(  c #CF5178",
")  c #D25077",
"_  c #D25177",
"`  c #D05078",
"'  c #D45278",
"]  c #D65278",
"[  c #D65279",
"{  c #C7616B",
"}  c #C7646B",
"|  c #C9626B",
" . c #C57E66",
".. c #C97A66",
"X. c #C87D66",
"o. c #C97D67",
"O. c #CD7F67",
"+. c #5E9E71",
"@. c #798B65",
"#. c #6B966B",
"$. c #6C966B",
"%. c #7E837B",
"&. c #7E837C",
"*. c #57A176",
"=. c #56A776",
"-. c #5CA273",
";. c #58A175",
":. c #95845E",
">. c #BF805D",
",. c #8E8861",
"<. c #BD8060",
"1. c #BD8162",
"2. c #BE8262",
"3. c #B08863",
"4. c #BB856E",
"5. c #A4817A",
"6. c #BA8970",
"7. c #B98C7B",
"8. c #BA8E7C",
"9. c #C4815B",
"0. c #C0805D",
"q. c #C0815D",
"w. c #C0815E",
"e. c #C1825E",
"r. c #C2825E",
"t. c #D18356",
"y. c #D18456",
"u. c #D28456",
"i. c #D48657",
"p. c #D38758",
"a. c #D48658",
"s. c #D58758",
"d. c #D68758",
"f. c #C18362",
"g. c #C68362",
"h. c #C18463",
"j. c #C38462",
"k. c #C38563",
"l. c #C78761",
"z. c #C38664",
"x. c #C28665",
"c. c #C28766",
"v. c #C28767",
"b. c #C48664",
"n. c #C98066",
"m. c #CB8167",
"M. c #CE8067",
"N. c #CE8267",
"B. c #C88861",
"V. c #C98962",
"C. c #CB8A63",
"Z. c #C98C65",
"A. c #D08E64",
"S. c #D18F67",
"D. c #D68F6A",
"F. c #DA9262",
"G. c #DA9362",
"H. c #DB9363",
"J. c #DB9463",
"K. c #DB9464",
"L. c #DD9665",
"P. c #D59069",
"I. c #D4916A",
"U. c #D6916A",
"Y. c #D7916A",
"T. c #D7936A",
"R. c #D69468",
"E. c #D69469",
"W. c #D8936A",
"Q. c #DA9769",
"!. c #D8946B",
"~. c #DE9B6D",
"^. c #DE9C6D",
"/. c #DF9C6D",
"(. c #DF9D6E",
"). c #C79375",
"_. c #C89375",
"`. c #C6957C",
"'. c #C5977F",
"]. c #C9977A",
"[. c #E09D6E",
"{. c #E5A06E",
"}. c #E5A06F",
"|. c #E6A16F",
" X c #E4A170",
".X c #E4A270",
"XX c #E4A271",
"oX c #E5A271",
"OX c #E5A371",
"+X c #E6A371",
"@X c #E8A472",
"#X c #E8A573",
"$X c #E9AA76",
"%X c #E9AA77",
"&X c #EAAA77",
"*X c #EAAB77",
"=X c #E9AC78",
"-X c #EAAC78",
";X c #8A7C88",
":X c #8A7C89",
">X c #8D7F88",
",X c #7A8881",
"<X c #7A8882",
"1X c #598ABE",
"2X c #6A8AAF",
"3X c #558DC8",
"4X c #4D9CDF",
"5X c #878393",
"6X c #A69E9B",
"7X c #A69F9B",
"8X c #A8A6A5",
"9X c #A8A7A6",
"0X c #C79A83",
"qX c #C19985",
"wX c #C89C83",
"eX c #CBA18A",
"rX c #C5A290",
"tX c #CFA892",
"yX c #D1AF9B",
"uX c #D5B59F",
"iX c #CAB2A3",
"pX c #CFB2A0",
"aX c #C1B6AD",
"sX c #C9B6A9",
"dX c #CBB9AC",
"fX c #CBBAAD",
"gX c #CBBBAE",
"hX c #D5BFAF",
"jX c #CBBCB0",
"kX c #CCBCB0",
"lX c #CDBEB2",
"zX c #C4C0BA",
"xX c #C6C2BA",
"cX c #D8C3B3",
"vX c #DECCBD",
"bX c #DECDBE",
"nX c #E3CDBA",
"mX c #D6D1C8",
"MX c #E2D5C7",
"NX c #E6D7C7",
"BX c #E8D6C5",
"VX c #E8D7C6",
"CX c #E7DCCE",
"ZX c #EADAC9",
"AX c #EADBCB",
"SX c #E8DCCD",
"DX c #EAE1D4",
"FX c #EAE3D5",
"GX c #EBE4D7",
"HX c #F1E6D6",
"JX c #F1E7D7",
"KX c #F2E7D7",
"LX c #F2E8D8",
"PX c #F3E8D9",
"IX c None",
/* pixels */
"IXIXIXIXIXIXIXIXIXIX>.l.l.>.IXIXIXIXIXIXIXIXIXIX",
"IXIXIXIXIXIXIXIXIXr.[.@X@X[.r.IXIXIXIXIXIXIXIXIX",
"IXIXIXIXIXIXIXIXe.[.R.C.C.R.[.e.IXIXIXIXIXIXIXIX",
"IXIXIXIXIXIXIXe.(.S.a Q.Q.a S.(.e.IXIXIXIXIXIXIX",
"IXIXIXIXIXIXw./.D.A t }.}.t A D./.w.IXIXIXIXIXIX",
"IXIXIXIXIXq./.P.K U y {.{.y U K P./.q.IXIXIXIXIX",
"IXIXIXIX0./.U.b ) Q y {.{.y Q ) b U./.0.IXIXIXIX",
"IXIXIX>.^.Y.{ m _ Q y {.{.y Q _ m { Y.^.>.IXIXIX",
"IXIX>.^.I.H ' M _ Q y {.{.y Q _ M ' H I.^.>.IXIX",
"IXg ~.W.D L ] M _ Q y {.{.y Q _ M ] L D W.~.g IX",
"f ~.T.| T P ] M _ Q y {.{.y Q _ M ] P T | T.~.f ",
"B.!.S ) ~ P ] M _ Q y {.{.y Q _ M ] P ~ ) S !.B.",
"r } n _ ~ P ] M _ Q y {.{.y Q _ M ] P ~ _ n } r ",
"  ^ M _ ~ P ] M _ Q y |.|.y Q _ M ] P ~ _ M ^   ",
"l ( M _ ~ P ] M _ Q 6 A.A.6 Q _ M ] P ~ _ M ( l ",
"l ( M _ ~ P ] M ) J g.E.E.g.J ) M ] P ~ _ M ( l ",
"l ( M _ ~ P ] M G N.oX#X#XoXN.G M ] P ~ _ M ( l ",
"l ( M _ ~ P [ c n.+X-X=X=X-X+Xn.c [ P ~ _ M ( l ",
"l ( M _ ~ I ! m.OX$XF.p.p.F.$XOXm.! I ~ _ M ( l ",
"l ( M _ / x M.OX$XF.u.u.u.u.F.$XOXM.x / _ M ( l ",
"l ( M ) Y  .OX%XF.y.h.6.6.h.y.F.%XOX .Y ) M ( l ",
"j ( M W O.OX%XG.t.v.jXmXmXjXv.t.G.%XOXO.W M ( k ",
"z ` v X.oX%XH.t.c.lXvX`.`.vXlXc.t.H.%XoXX.v ` B ",
"C E o.XX&XH.y.c.kXbX4.N N 4.bXkXc.y.H.&XXXo.R V ",
"Z ...X&XJ.u.x.gXGXtX> 1X1X> tXGXgXx.u.J.&X.X..Z ",
"3. X&XK.u.z.fXDXPXyX, 2X2X, yXPXDXfXz.u.K.&X X3.",
"V.*XK.u.z.dXDXHXJXSXqX: : qXSXJXHXDXdXz.u.K.*XV.",
"Z.L.u.k.dXFXKXHXHXLXCXiXiXCXLXHXHXKXFXdXk.u.L.Z.",
"w a.9.sXMXnXZXKXKXAXuXwXwXuXAXKXKXZXnXMXsX9.a.w ",
"9 i.f.cX8.F 7.BXVX_.e & & e ).VXBX7.F 8.cXf.i.9 ",
"q i.b.0X:X3X;XeX].7 + @ X $ 8 ].eX;X3X:X0Xb.i.q ",
"q i.b.'.5X4X5X'.2.O % < < * - 2.'.5X4X5X'.b.i.q ",
"q i.k.pX5.>X5.pX1.o * * * * - 1.pX5.>X5.pXk.i.q ",
"q i.j.NXhXrXhXNX<.o * < < * - <.NXhXrXhXNXj.i.q ",
"q a.h aXxXzXxXaXs o * < < * 1 s aXxXzXxXaXh a.q ",
"q s.d 6X9X8X9X7Xp # = = = = 2 i 7X9X8X9X6Xd s.q ",
"0 d.u %.<X,X<X&.4 ; . . . . 3 4 &.<X,X<X%.u d.0 ",
":.5 ,.*.IXIXIX;.@.$.-.IXIX-.#.@.;.IXIXIX*.,.5 :.",
"=.+.=.IXIXIXIXIXIXIXIXIXIXIXIXIXIXIXIXIXIX=.+.=."
};
