/* XPM */
static char *_a59c4f3bc96441ef761e0cbb955edabB6LZKleGVy6Poc3g[] = {
/* columns rows colors chars-per-pixel */
"40 40 165 2 ",
"   c #72751B",
".  c #73761C",
"X  c #74771C",
"o  c #73771D",
"O  c #73761B",
"+  c #72751A",
"@  c #72761B",
"#  c #71751B",
"$  c #75791F",
"%  c #71751D",
"&  c #75781F",
"*  c #7F8032",
"=  c #797B27",
"-  c #81813A",
";  c #71751C",
":  c #70741C",
">  c #71741B",
",  c #858345",
"<  c #7C7D32",
"1  c #71751A",
"2  c #797A2C",
"3  c #73771C",
"4  c #75781E",
"5  c #797C2D",
"6  c #7E813C",
"7  c #767924",
"8  c #8D8951",
"9  c #878646",
"0  c #777926",
"q  c #72761D",
"w  c #6F731B",
"e  c #74771D",
"r  c #73771E",
"t  c #767A2E",
"y  c #797D3C",
"u  c #7D7D33",
"i  c #828243",
"p  c #828343",
"a  c #757823",
"s  c #7C7F36",
"d  c #888954",
"f  c #7B7D2C",
"g  c #71741A",
"h  c #70741A",
"j  c #72751C",
"k  c #717419",
"l  c #737621",
"z  c #797B32",
"x  c #7A7C2F",
"c  c #787A20",
"v  c #777A22",
"b  c #7D8039",
"n  c #777B2A",
"m  c #7C7A21",
"M  c #91812E",
"N  c #817D24",
"B  c #75771D",
"V  c #757822",
"C  c #7E813B",
"Z  c #7D813E",
"A  c #868446",
"S  c #8E8B5D",
"D  c #7F813C",
"F  c #707419",
"G  c #76771D",
"H  c #94852C",
"J  c #7D7921",
"K  c #7C7921",
"L  c #71761E",
"P  c #81813D",
"I  c #8E8C5A",
"U  c #868750",
"Y  c #73761D",
"T  c #747621",
"R  c #7B7D33",
"E  c #777928",
"W  c #75761D",
"Q  c #7A7D35",
"!  c #7F813F",
"~  c #838242",
"^  c #72751D",
"/  c #767826",
"(  c #767928",
")  c #74771E",
"_  c #72761C",
"`  c #767920",
"'  c #74771F",
"]  c #808347",
"[  c #7B8038",
"{  c #7E7D22",
"}  c #7B7B21",
"|  c #757829",
" . c #727620",
".. c #8A8027",
"X. c #817C23",
"o. c #70741B",
"O. c #777A1F",
"+. c #73751B",
"@. c #858441",
"#. c #81823A",
"$. c #8A7E29",
"%. c #8E8229",
"&. c #7E7C21",
"*. c #7C7D30",
"=. c #81803E",
"-. c #767827",
";. c #78771F",
":. c #867F26",
">. c #7B7A20",
",. c #808340",
"<. c #7A7D33",
"1. c #7B7C2D",
"2. c #7B7C2E",
"3. c #74761C",
"4. c #73761E",
"5. c #7C7E3D",
"6. c #8E8D5F",
"7. c #7A7B2D",
"8. c #757722",
"9. c #757826",
"0. c #74781D",
"q. c #898227",
"w. c #807C22",
"e. c #897E28",
"r. c #77771E",
"t. c #7F7D22",
"y. c #7A7B2B",
"u. c #7C7E2F",
"i. c #888027",
"p. c #877F27",
"a. c #7D7A22",
"s. c #7B7E32",
"d. c #787C2B",
"f. c #81813C",
"g. c #7D7E34",
"h. c #90822B",
"j. c #867C27",
"k. c #7B7D28",
"l. c #7A7E30",
"z. c #797C2E",
"x. c #787A27",
"c. c #7F8146",
"v. c #81844D",
"b. c #83833A",
"n. c #7A791F",
"m. c #867F25",
"M. c #88864A",
"N. c #80803D",
"B. c #757827",
"V. c #757821",
"C. c #8C8851",
"Z. c #787A2B",
"A. c #76782A",
"S. c #7F7F39",
"D. c #7A7B2F",
"F. c #737720",
"G. c #77791E",
"H. c #857F25",
"J. c #72751F",
"K. c #777A30",
"L. c #7B7E3C",
"P. c #7B7E3A",
"I. c #77771F",
"U. c #75781D",
"Y. c white",
/* pixels */
"                                                                                ",
"                                                      . .                       ",
"                      X o .               O + @         #                       ",
"                    . $ % & .             $ * = +                               ",
"      + - - +         ; : >               ; , < 1                 . .           ",
"      + 2 2 +           #       + 3 X       >       . 1       . 4 o             ",
"        1 1                   @ 5 6 .           + 7 8 9 0 +     q w #   e r O   ",
"                                t y #           1 u i p a       #     + s d f + ",
"                                g h               j   k                 l z x + ",
"                                                                          g g   ",
"                                                                                ",
"                                                      .                         ",
"                                . . .               e c e .                     ",
"    . .   +                     v b n #             m M N B                     ",
"  . $ V C Z +                   A S D F           G H J K G   o 4               ",
"    L P I U Y                   T R E +             W   #     ; j               ",
"  + Q ! I ~ Y                     g +       . .                           . .   ",
"    ^ / ( g           . .                 4 ) .                           o .   ",
"      + +             . Y 4 e             _ #                             >     ",
"                        > ;                                                     ",
"                            .                                                   ",
"                            ` ' .                                       _   .   ",
"            . . .         + ] [ O                                       { } o   ",
"            r o _           |  .                  . O                   ..X.h   ",
"            o.>             +     . e           e e O..                         ",
"    +.  #                           q _         _ @.#.1                         ",
"    $.%.&.#           . X O O       >         1 *.=.-.+                         ",
"    ;.:.>.            4 ,.<.1.2.+         . 3.  4.^ +                           ",
"      g #             # 5.6.7.8.          . e                                   ",
"                          9.j +             #                                   ",
"                          +                             .                       ",
"  . e                 4 @                               0.                      ",
"  . j                 3 q.w.    _ . .                   #                       ",
"              + +     # X.e.r.. t.} e                                   O . X   ",
"            + y.u.+     > > . O i.p.a.      X O O                     1 s.d.0.  ",
"  X O .     + f.g.1         e o 3.h.j.    X k.l.z.+                 4 x.c.v.q   ",
". b.u.O X .   # 1             > n.m.>     j M.N.B.+                 V.C.Z.A.q   ",
"  S.D.<.D F.        O G.H.e         . e     J.j +                     J.j +     ",
"  g k K.L.P.            I.        U.o                                           ",
"      1 g j             #                                                       "
};
