/* XPM */
static char *result[] = {
/* columns rows colors chars-per-pixel */
"30 40 83 1 ",
"  c #3E757A",
". c #5C736E",
"X c #457577",
"o c #4C7475",
"O c #417579",
"+ c #437C7A",
"@ c #756F63",
"# c #67736A",
"$ c #727165",
"% c #8A715C",
"& c #9E7252",
"* c #957159",
"= c #9B7359",
"- c #AB6E4E",
"; c #B36A4A",
": c #BC714D",
"> c #A97955",
", c #B17351",
"< c #BB7B55",
"1 c #C1754F",
"2 c #C07550",
"3 c #C37A54",
"4 c #C97D53",
"5 c #56B742",
"6 c #57B842",
"7 c #5AB945",
"8 c #52B34C",
"9 c #58B64F",
"0 c #5EBC49",
"q c #4FAF56",
"w c #4DAC5C",
"e c #51AF52",
"r c #52AF5E",
"t c #51B152",
"y c #5AB751",
"u c #5CB952",
"i c #63BE4B",
"p c #66BF51",
"a c #4A9D6E",
"s c #46847A",
"d c #478A7B",
"f c #498F7B",
"g c #499476",
"h c #499B72",
"j c #49917A",
"k c #5D9071",
"l c #559F76",
"z c #5F9F71",
"x c #748D66",
"c c #7A8963",
"v c #69976C",
"b c #719067",
"n c #709369",
"m c #629E70",
"M c #4DA660",
"N c #49A866",
"B c #49A46A",
"V c #49A868",
"C c #50AE60",
"Z c #4DA67B",
"A c #4FAF7B",
"S c #52AC79",
"D c #4EB07C",
"F c #67C14D",
"G c #68C14E",
"H c #6DC452",
"J c #72C756",
"K c #74C857",
"L c #75C858",
"P c #7DCD5A",
"I c #85825E",
"U c #838A63",
"Y c #CF8155",
"T c #D28557",
"R c #8BD45E",
"E c #90D760",
"W c #96DA62",
"Q c #9CDD64",
"! c #B6EB6D",
"~ c #BCEF6F",
"^ c #BEF06F",
"/ c #BFF070",
"( c None",
/* pixels */
"((((((((((((((((((((((((((((((",
"((((((((((((((((((((((((((((((",
"((((((((((((((((((((((((((((((",
"(((((((((((((((i0(((((((((((((",
"(((((((((((((eiQR0((((((((((((",
"(((((((((((MCpQ^^RuC((((((((((",
"((((((((((wyJR^~^!PHt(((((((((",
"(((((((((MyJLR~^^!PKHt((((((((",
"((((((((w8iLKKW~!RKKJ0t(((((((",
"(((((((a86GLKKKERJKKJi5qj(((((",
"((((((jM66JKKKKKJJKKKG55Bj((((",
"(((((jB866pHKKKKKJKKHi558hj(((",
"((((+hNe667JJJKKKKKKG765wVf(((",
"((((+hNw557JJJKKKKJKH755MNg+((",
"(((+jVN5655iiiJKKJ0F7656tNBd+(",
"(((sBVN8555557GKJi555658wNVh+(",
"((OsBNNNw55566577555555wNNNa (",
"((+daNNVVe5566665565558NVNNadO",
"((sjaVVVVw5555565566q8qVNNBgj+",
"(O faVVVVVNNe578q555wNVNNVadfO",
"(O+fgVVVVNVNNwwNNwqwBVNVVVjffO",
"(O+jfhBVVNNVVVNNNNVVVVVNVBgfdO",
"(OOfffdBVVNVNNVVVVVVVVVNafffsO",
"((OsjffhVaBNVVVVVVaVBaBBgfff+O",
"((OsfjffjjjBhgVVVBjBjfjjfffsOO",
"(((O+sffffjfjjjhhjffjffffjf+O(",
"(((OO+jfjfffffjffffjffffsd+O((",
"((((OOss+sffffffffffdfjsOOO(((",
"(((((O+OO+ffssffffd+O+sOOO((((",
"((((((Zs+ O+OOsddsOOO  +jZ((((",
"((((((AAk@#OOO OOOOOX@@ZDD((((",
"((((((ADb23*%ooooo.*=4,mDD((((",
"((((((AASU3:;--,,--;2<nDA(((((",
"(((((((AASbbc-2TY:>xxvAAA(((((",
"((((((((AADDAn<44>mDZAAA((((((",
"(((((((((AAAASxUUmDDAA((((((((",
"((((((((((((AADDDDDD((((((((((",
"(((((((((((((AAASAS(((((((((((",
"((((((((((((((((((((((((((((((",
"(((((((((((((((((((((((((((((("
};
