/* XPM */
static char *c68e35cdf06c44dbadd7956151339bc9U3onlJkAUIJ3rFhF[] = {
/* columns rows colors chars-per-pixel */
"32 32 7 1 ",
"  c None",
". c #04193F",
"X c #03396B",
"o c #C3242F",
"O c #E7333B",
"+ c #0696DB",
"@ c #0FEFFB",
/* pixels */
"                                ",
"                                ",
"                                ",
"                                ",
"                                ",
"             .....              ",
"           ..@@@++..            ",
"          .@@@@@@+XX.           ",
"         .@@@@@@@++XX.          ",
"        .@@@@@@@@++XXX.         ",
"        .@@@@@@@@++XXX.         ",
"       .@@@@@@@@@+++XXX.        ",
"       .@@@@@@@@@+++XXX.        ",
"       .@@@@@@@@@+++XXX.        ",
"       .@@@@@@@@++++XXX.        ",
"       .@@@@@@@@++++XXX.        ",
"        .@@@@@@+++++XX.         ",
"        .@@@@++++++XXX.         ",
"      ....+++++++++XX..         ",
"     .+++Xoo++++++Xoo..         ",
"     .+++XOOoooooooOO.X.        ",
"     .++++XOOOOOOOOO.XX.        ",
"      ....+XXOOOOO..XXX.        ",
"         .++XOO.OO.X...         ",
"         .++XO.X.O.X.           ",
"         .+++XXXX.XX.           ",
"         .++++++XXXX.           ",
"         .++++++XXXX.           ",
"         .++++..XXXX.           ",
"         .+++.  .XXX.           ",
"         .+++.  .XXX.           ",
"         ....    ....           "
};
