/* XPM */
static char *a0d714ba69d642619a83cca013d4f4calHXy1E3Tg1tIf3pU[] = {
/* columns rows colors chars-per-pixel */
"32 32 12 1 ",
"  c None",
". c #04193F",
"X c #1C1A30",
"o c #2A304E",
"O c #03396B",
"+ c #C3242F",
"@ c #E7333B",
"# c #0696DB",
"$ c #0FEFFB",
"% c #94A0BA",
"& c #DDE2E9",
"* c #FCFEFE",
/* pixels */
"                                ",
"                                ",
"                                ",
"                                ",
"                                ",
"                                ",
"                                ",
"            .....               ",
"          ..$$$##..             ",
"         .$$$$$$#OO.            ",
"        .$$$$$$$..OO.           ",
"       .$$$$$$$$..OOO.          ",
"       .$$$...$$##OO..          ",
"      .$$$..**.$###..*.         ",
"      .$$$.....$###....         ",
"      .XXXX....$###....         ",
"      .&&&&X..$####O...         ",
"     .##%&%%X$$####OOO.         ",
"     .###%%oX$####OOO.          ",
"     .###%%oX###..OOO.          ",
"     .####ooX#####OO.           ",
"      .###OX#####OOO.           ",
"      .####OOOOOOOO+..          ",
"       .####O++++++@.O.         ",
"        .###O@@@@@@.OOO.        ",
"        .####.@@@@@.OOOO.       ",
"        .####O..@@@.OOOO.       ",
"        .#####OO....OOOO.       ",
"        .#####OOOOO.....        ",
"        .####..OOOO.            ",
"        .###.  .OOO.            ",
"        .###.  .OOO.            "
};
